<svg xmlns="http://www.w3.org/2000/svg" width="1376" height="768" viewBox="0 0 1376.000000 768.000000"><rect width="100%" height="100%" fill="#EFEBE2"/><g transform="translate(0.000000,768.000000) scale(0.100000,-0.100000)"
fill="#16294D" stroke="none"><path d="M10375 6925 c-347 -65 -590 -246 -765 -570 -24 -44 -48 -87 -55 -95
-6 -8 -17 -34 -25 -58 -16 -51 -21 -55 -85 -72 -124 -34 -191 -170 -154 -315
10 -39 8 -50 -10 -88 -12 -24 -21 -49 -21 -57 0 -27 -112 -180 -179 -242 -214
-203 -476 -301 -836 -315 -346 -13 -671 59 -1169 256 -43 18 -82 31 -87 29
-13 -4 269 -246 371 -319 182 -130 340 -201 545 -245 125 -28 398 -25 532 4
238 53 419 139 603 287 117 94 119 76 3 -36 -163 -159 -389 -270 -648 -320
-119 -24 -420 -18 -530 10 -309 78 -540 216 -888 530 -229 207 -355 285 -652
406 -232 93 -328 169 -361 281 -55 191 141 343 273 213 36 -34 53 -31 53 10 0
78 -92 141 -204 141 -71 0 -72 -1 -133 -50 -68 -55 -96 -95 -118 -166 -42
-140 6 -287 133 -406 64 -60 126 -99 281 -178 238 -121 405 -243 606 -445 412
-412 732 -598 1145 -666 101 -17 415 -17 510 0 307 54 516 132 879 326 108 58
222 78 347 59 89 -13 94 -15 228 -78 180 -86 305 -116 476 -116 273 0 485 91
770 330 223 187 364 254 535 253 104 0 185 -21 242 -61 21 -15 58 -34 83 -41
72 -21 179 -74 254 -125 37 -26 70 -46 72 -44 8 9 -70 168 -112 231 -102 148
-238 233 -442 273 -232 45 -535 -44 -712 -210 -201 -188 -356 -266 -531 -266
-142 0 -282 58 -334 137 l-19 28 25 -18 c13 -10 58 -34 99 -55 l75 -37 130 1
c116 0 137 3 196 26 87 34 139 61 169 88 l25 23 -37 -7 c-137 -25 -436 141
-426 236 6 59 33 69 229 78 132 6 191 13 244 30 314 97 506 360 508 695 1 199
-60 351 -197 488 -113 114 -215 171 -394 219 -103 27 -397 35 -517 13z m306
-116 c38 -7 69 -16 69 -20 0 -5 -44 -9 -97 -9 -270 -1 -558 -121 -766 -319
-69 -65 -77 -71 -62 -41 35 71 141 183 229 243 178 123 423 179 627 146z
m-469 -710 c39 -20 67 -49 32 -34 -10 5 -56 10 -102 13 -77 4 -88 2 -146 -27
-59 -29 -117 -81 -158 -141 l-17 -25 0 26 c-2 51 76 146 153 186 64 34 172 35
238 2z m4 -233 c79 -79 10 -206 -112 -206 -57 0 -98 26 -92 56 3 17 11 19 70
16 76 -4 101 6 123 48 26 51 13 62 -69 55 -92 -8 -114 5 -71 40 47 39 107 35
151 -9z m386 -107 c31 -63 15 -135 -42 -183 -47 -39 -51 -32 -25 39 17 43 25
86 25 126 0 69 14 75 42 18z"/><path d="M7095 6143 c-164 -23 -321 -100 -443 -217 -59 -56 -146 -166 -154
-193 -2 -7 39 -32 90 -57 73 -36 92 -42 92 -29 0 9 35 50 78 92 177 175 423
227 652 138 140 -54 234 -125 470 -353 102 -98 230 -213 285 -254 55 -41 103
-79 106 -84 8 -11 126 0 224 20 153 31 288 86 413 167 68 45 81 64 28 42 -98
-41 -283 -36 -422 10 -172 58 -231 99 -565 393 -104 91 -234 184 -319 227
-160 81 -375 120 -535 98z"/><path d="M11870 6058 c0 -4 -9 -8 -20 -8 -53 0 -136 -77 -172 -158 -29 -66
-22 -156 16 -207 51 -66 131 -98 188 -74 41 17 33 42 -17 50 -114 19 -124 169
-15 226 125 66 283 -22 336 -186 22 -68 23 -198 1 -256 l-15 -41 82 -84 82
-85 18 50 c67 190 62 354 -17 525 -25 55 -147 179 -202 207 -63 32 -265 64
-265 41z"/><path d="M4970 5870 c-534 -53 -1000 -206 -1365 -448 -118 -78 -313 -267 -364
-354 -175 -300 -113 -622 146 -750 64 -31 74 -33 173 -33 120 0 178 20 258 90
165 143 114 446 -75 445 -63 0 -71 -14 -22 -41 82 -46 105 -137 56 -222 -25
-41 -75 -87 -97 -87 -6 0 -18 -7 -26 -15 -33 -33 -164 -8 -217 41 -191 177
-90 486 233 716 573 407 1486 540 2235 326 111 -31 330 -108 373 -130 28 -14
27 -17 -2 -61 -13 -19 -22 -37 -20 -40 10 -10 -100 -97 -134 -107 -93 -25
-163 0 -287 105 -94 79 -137 102 -210 116 -124 23 -247 -61 -215 -147 l10 -26
40 36 c34 30 47 36 85 36 68 0 110 -28 213 -139 78 -85 105 -106 169 -138 74
-36 81 -38 178 -38 133 0 199 30 316 146 110 109 113 129 27 186 -62 41 -236
143 -244 143 -2 0 -52 29 -110 65 -135 83 -214 151 -260 225 -40 66 -33 62
-199 86 -128 18 -539 27 -665 14z"/><path d="M3045 5510 c-552 -30 -1048 -165 -1355 -368 -284 -188 -429 -432
-417 -702 7 -162 66 -282 181 -368 149 -109 306 -129 461 -58 201 92 271 337
136 476 -65 67 -165 89 -202 44 -14 -17 -16 -16 41 -34 91 -30 120 -139 61
-232 -16 -25 -39 -49 -50 -53 -12 -3 -21 -10 -21 -15 0 -17 -101 -42 -143 -36
-176 27 -281 191 -243 377 58 273 310 479 756 615 263 81 766 140 980 116 l74
-9 89 78 c48 43 114 95 147 116 32 21 59 41 59 46 1 4 -27 7 -61 7 -35 0 -126
2 -203 4 -77 3 -207 1 -290 -4z"/><path d="M11735 5077 c-16 -7 -58 -27 -92 -44 -34 -18 -80 -35 -103 -39 -33
-5 -44 -13 -57 -38 -41 -80 -119 -150 -194 -175 -28 -9 -41 -21 -54 -51 -10
-22 -22 -40 -27 -40 -4 0 -8 -4 -8 -10 0 -22 269 -2 297 22 14 11 50 21 163
43 338 67 579 -94 580 -386 0 -132 -34 -208 -207 -461 -131 -192 -186 -317
-200 -458 -31 -294 107 -531 356 -615 91 -31 199 -41 276 -25 33 7 70 13 83
12 12 0 22 4 22 9 0 5 7 9 15 9 46 0 177 124 220 209 122 241 27 510 -199 561
-101 22 -216 -22 -256 -100 -40 -78 -15 -151 27 -80 20 34 85 70 126 70 33 0
94 -24 120 -48 63 -56 77 -188 31 -280 -124 -250 -496 -200 -578 78 -52 176 0
317 220 595 171 217 227 343 241 540 22 328 -192 613 -520 690 -89 21 -245 28
-282 12z"/><path d="M2412 4452 c-23 -53 -102 -248 -177 -432 -188 -464 -170 -425 -197
-424 -13 1 -63 9 -113 18 -438 82 -817 -39 -947 -301 -42 -85 -43 -89 -43
-187 0 -116 23 -180 90 -254 117 -130 345 -132 426 -4 32 50 37 82 14 82 -8 0
-15 -5 -15 -10 0 -25 -93 -70 -144 -70 -176 1 -273 200 -180 369 81 151 255
225 524 224 126 0 313 -24 333 -42 7 -7 -180 -476 -256 -642 -19 -42 -52 -96
-73 -119 -38 -42 -121 -90 -157 -90 -15 0 -18 -7 -15 -42 l3 -43 293 -3 292
-2 0 45 c0 40 -3 45 -22 45 -41 1 -106 37 -122 69 -37 71 -26 115 112 464 97
244 107 267 126 261 61 -17 258 -121 350 -184 248 -169 427 -380 603 -715 336
-635 732 -992 1253 -1128 101 -26 137 -30 295 -34 371 -10 579 58 1135 370
370 209 521 265 726 274 316 14 540 -128 585 -373 42 -226 -128 -425 -327
-384 -29 6 -70 24 -91 39 l-38 28 -55 -30 c-30 -17 -57 -32 -59 -34 -3 -2 15
-24 40 -49 172 -176 490 -144 642 64 215 293 91 720 -258 887 -130 62 -195 76
-375 82 -289 10 -508 -60 -950 -302 -47 -26 -112 -61 -145 -77 -33 -17 -71
-41 -85 -54 -36 -33 -211 -118 -306 -148 -327 -106 -659 -57 -958 141 -83 56
-253 224 -281 279 -11 21 -49 74 -84 118 -208 260 -293 427 -633 1241 -99 236
-221 529 -272 650 -51 121 -119 283 -151 360 -32 77 -62 145 -67 151 -5 7 -46
12 -107 12 l-98 1 -41 -97z m113 -572 c48 -118 122 -300 165 -405 43 -104 88
-214 100 -244 l21 -53 -48 42 c-108 95 -328 228 -482 290 -36 15 -66 31 -66
36 0 13 217 556 220 552 2 -2 42 -100 90 -218z"/><path d="M5376 4256 c-88 -190 -196 -290 -408 -375 -25 -10 -28 -15 -28 -61
l0 -50 105 0 105 0 0 -422 c1 -630 11 -694 131 -802 182 -164 547 -105 680
110 l20 34 -27 35 c-33 43 -32 43 -79 -5 -85 -87 -234 -94 -304 -15 -59 67
-61 91 -61 602 l0 463 200 0 200 0 0 70 0 70 -200 0 -200 0 0 210 0 210 -50 0
-49 0 -35 -74z"/><path d="M4185 3940 c-307 -36 -499 -245 -454 -493 31 -172 135 -260 449 -376
282 -105 341 -150 348 -265 9 -143 -88 -225 -270 -226 -215 -1 -360 111 -429
330 l-17 55 -46 3 -46 3 0 -199 0 -200 48 -20 c163 -70 300 -97 487 -97 170 0
235 13 350 70 282 137 331 493 96 689 -53 44 -130 81 -291 141 -179 65 -243
93 -295 126 -131 83 -102 266 52 320 58 21 197 17 262 -6 103 -37 196 -147
227 -265 11 -45 12 -45 58 -48 l46 -3 0 185 0 185 -57 21 c-173 65 -353 90
-518 70z"/><path d="M8620 3936 c-113 -31 -234 -133 -302 -255 l-36 -64 -6 99 c-12 180
-17 215 -33 221 -9 4 -97 -13 -197 -37 -99 -23 -203 -48 -231 -54 -48 -11 -50
-12 -50 -46 0 -32 3 -35 40 -42 62 -12 87 -29 106 -73 26 -57 29 -970 3 -1034
-18 -47 -49 -70 -107 -79 -41 -7 -42 -8 -42 -47 l0 -40 360 0 360 0 0 39 0 39
-57 12 c-61 12 -90 32 -117 80 -21 39 -30 641 -11 739 35 179 140 286 269 274
56 -6 115 -43 134 -85 16 -36 92 -29 144 14 192 154 22 408 -227 339z"/><path d="M6450 3930 c-19 -5 -118 -23 -220 -41 -102 -17 -188 -33 -192 -36 -5
-2 -8 -19 -8 -37 0 -32 2 -33 54 -45 52 -12 84 -35 102 -76 4 -11 11 -213 14
-450 7 -459 8 -474 62 -579 140 -275 602 -286 836 -20 l47 53 16 -115 c9 -64
21 -120 27 -126 9 -9 193 28 440 89 18 4 22 12 22 44 0 37 -1 39 -32 39 -40 0
-91 29 -115 67 -17 25 -18 68 -20 613 -2 322 -5 595 -8 608 -7 29 -17 28 -200
-7 -82 -16 -187 -35 -232 -41 l-83 -12 0 -38 c0 -38 0 -38 57 -51 102 -25 98
-3 101 -482 2 -227 0 -423 -3 -435 -9 -36 -94 -121 -150 -150 -60 -30 -189
-42 -250 -22 -66 22 -118 79 -148 164 -7 20 -13 222 -17 561 l-5 530 -30 2
c-16 1 -46 -3 -65 -7z"/><path d="M11983 2733 c12 -87 2 -333 -17 -398 -116 -407 -401 -685 -799 -779
-145 -34 -208 -41 -397 -40 -187 0 -248 6 -415 40 -198 40 -481 132 -784 253
-456 183 -750 254 -1056 255 -211 1 -314 -18 -465 -87 -323 -147 -446 -512
-271 -807 74 -124 218 -204 391 -216 165 -13 294 40 522 212 212 160 306 201
418 187 101 -13 160 -66 160 -144 0 -51 8 -63 34 -53 45 17 60 127 27 192 -55
106 -174 152 -341 131 -121 -15 -218 -62 -430 -207 -231 -158 -404 -174 -545
-49 -126 110 -135 326 -17 450 14 15 30 27 35 27 5 0 25 14 45 31 83 73 230
112 422 111 231 -1 459 -63 896 -245 677 -282 928 -355 1296 -377 432 -26 804
80 1130 322 337 250 552 652 561 1047 l2 101 -75 5 c-96 6 -175 27 -263 70
-39 19 -71 35 -72 35 -1 0 3 -30 8 -67z"/><path d="M7900 2160 c0 -5 -17 -12 -37 -15 -76 -12 -210 -49 -298 -81 -108
-39 -276 -111 -288 -123 -4 -4 6 -29 22 -53 17 -25 40 -71 52 -101 l21 -56 37
16 c20 8 90 35 155 58 118 42 120 43 171 106 78 95 186 172 318 225 l82 34
-117 0 c-69 0 -118 -4 -118 -10z"/><path d="M6880 1719 c-298 -195 -789 -406 -1069 -459 -242 -46 -591 -58 -738
-27 -52 12 -88 13 -132 7 -375 -53 -781 40 -1089 249 -81 55 -69 33 29 -54
297 -262 693 -429 1127 -475 142 -16 489 -8 625 14 351 57 652 163 992 349
372 203 414 230 414 257 1 50 -73 171 -102 169 -7 0 -32 -14 -57 -30z"/></g><g transform="translate(0.000000,768.000000) scale(0.100000,-0.100000)"
fill="#C5A059" stroke="none"><path d="M10410 6805 c-173 -30 -323 -102 -442 -210 -56 -52 -121 -131 -143
-175 -15 -30 -7 -24 62 41 208 198 496 318 766 319 53 0 97 4 97 9 0 27 -217
37 -340 16z"/><path d="M5965 6343 c-29 -8 -99 -58 -129 -93 -25 -30 -40 -59 -67 -130 -16
-42 -15 -186 2 -237 19 -59 103 -175 162 -226 47 -40 257 -177 271 -177 9 0
182 -102 244 -143 l63 -42 -6 -41 -6 -41 48 -18 c99 -36 132 -62 144 -111 16
-63 85 -137 143 -154 52 -14 76 -39 95 -95 28 -82 83 -129 163 -141 56 -8 108
-40 108 -65 0 -63 91 -127 196 -138 75 -9 76 -9 127 -64 67 -71 140 -98 215
-78 56 14 91 5 132 -34 58 -56 189 -75 240 -35 36 28 100 26 146 -5 60 -41
172 -31 234 22 25 21 40 25 83 24 29 -1 79 -3 113 -4 70 -2 101 10 159 65 50
47 102 69 146 62 52 -9 158 49 182 99 12 24 47 59 98 97 84 63 244 173 269
184 8 3 -4 4 -27 1 -22 -3 -79 -25 -125 -50 -361 -194 -571 -272 -878 -326
-95 -17 -409 -17 -510 0 -230 38 -422 112 -639 246 -171 105 -292 206 -506
420 -201 202 -368 324 -606 445 -257 131 -353 216 -408 363 -52 140 -11 287
106 382 30 25 51 44 46 44 -4 -1 -17 -4 -28 -6z"/><path d="M9515 6226 c-11 -9 -48 -25 -82 -36 -193 -66 -263 -220 -198 -437 19
-62 31 -66 51 -16 13 29 13 45 5 79 -37 147 30 280 159 315 48 13 57 20 73 53
22 46 19 62 -8 42z"/><path d="M10045 6120 c-99 -15 -226 -133 -224 -209 l0 -26 17 25 c41 60 99
112 158 141 58 29 69 31 146 27 46 -3 92 -8 102 -13 35 -15 7 14 -32 34 -43
21 -110 30 -167 21z"/><path d="M11928 6083 c-59 -7 -45 -23 20 -23 123 0 199 -35 298 -134 104 -105
145 -204 151 -366 5 -108 -6 -175 -43 -271 -19 -52 -15 -81 19 -123 l24 -30
34 20 c61 36 99 141 73 203 -15 36 -8 126 12 156 32 45 7 172 -38 196 -26 14
-58 91 -58 140 0 53 -66 129 -112 129 -16 0 -48 13 -71 29 -82 56 -207 86
-309 74z"/><path d="M7040 5901 c-113 -30 -198 -78 -282 -162 -88 -86 -97 -112 -46 -133
18 -8 39 -11 47 -9 23 8 101 85 101 100 0 6 11 25 24 40 23 27 28 28 100 25
78 -3 166 22 166 47 0 6 17 11 39 11 31 0 42 -5 56 -26 24 -37 98 -67 164 -66
62 1 96 -15 107 -50 21 -69 108 -148 162 -148 28 0 62 -37 62 -69 1 -69 114
-181 182 -181 17 0 39 -15 71 -50 l46 -50 116 0 c63 0 115 3 114 8 0 4 -44 39
-97 77 -53 39 -182 153 -286 254 -242 234 -336 304 -476 358 -119 46 -253 55
-370 24z"/><path d="M10065 5875 c-43 -35 -21 -48 71 -40 82 7 95 -4 69 -55 -22 -42 -47
-52 -123 -48 -59 3 -67 1 -70 -16 -6 -30 35 -56 92 -56 122 0 191 127 112 206
-44 44 -104 48 -151 9z"/><path d="M10560 5741 c0 -40 -8 -83 -25 -126 -26 -71 -22 -78 25 -39 57 48 73
120 42 183 -28 57 -42 51 -42 -18z"/><path d="M4875 5629 c-153 -20 -223 -31 -260 -39 -22 -5 -84 -19 -138 -31
-349 -76 -727 -257 -926 -444 -230 -215 -276 -469 -114 -619 49 -46 172 -72
213 -46 11 7 2 10 -33 10 -121 0 -218 99 -219 225 -2 161 110 325 313 463 188
126 525 262 789 316 452 94 863 94 1256 0 149 -36 189 -48 373 -113 125 -44
129 -43 158 12 20 40 28 35 -202 117 -210 75 -375 113 -625 145 -124 16 -480
19 -585 4z"/><path d="M11063 5231 c-61 -37 -119 -76 -128 -85 -21 -21 -79 -51 -164 -84
-59 -23 -80 -26 -196 -26 l-130 -1 -75 37 c-41 21 -86 45 -99 55 l-25 18 19
-28 c52 -79 192 -137 334 -137 142 0 246 40 396 153 65 48 196 167 185 166 -3
0 -55 -31 -117 -68z"/><path d="M2930 5270 c-417 -26 -772 -115 -1035 -261 -240 -132 -360 -273 -401
-468 -38 -186 67 -350 243 -377 39 -6 152 21 139 33 -2 3 -20 0 -38 -6 -69
-22 -180 21 -237 93 -76 96 -78 227 -3 358 30 54 32 55 99 83 23 10 50 27 60
39 36 41 63 84 63 100 0 16 66 65 116 85 20 8 49 10 77 6 58 -9 146 28 197 83
51 55 166 84 231 58 55 -22 156 -7 207 31 31 23 47 26 190 35 86 6 207 8 267
5 l110 -5 43 45 c24 25 40 49 35 53 -13 14 -216 19 -363 10z"/><path d="M11665 5220 c-139 -22 -269 -94 -455 -250 -285 -239 -497 -330 -770
-330 -171 0 -296 30 -477 116 -99 47 -167 74 -186 74 -26 0 287 -198 368 -233
50 -21 102 -50 117 -64 41 -39 129 -56 182 -36 63 24 131 28 158 9 56 -40 226
2 253 61 11 26 76 53 128 53 70 0 159 66 191 140 19 46 53 76 95 84 49 9 113
66 143 128 29 60 50 74 121 82 54 6 90 23 130 60 44 41 91 48 216 35 130 -13
147 -10 99 19 -73 45 -213 69 -313 52z"/><path d="M9048 5131 c-193 -155 -369 -239 -611 -293 -132 -29 -407 -32 -529
-5 -145 32 -357 110 -507 186 -66 34 -82 22 -25 -19 149 -107 291 -171 489
-221 110 -28 411 -34 530 -10 259 50 485 161 648 320 62 60 96 101 83 101 -3
0 -38 -26 -78 -59z"/><path d="M11670 4749 c-92 -20 -164 -39 -171 -46 -5 -5 67 -6 160 -5 216 5
288 -15 318 -86 28 -70 106 -146 126 -125 5 5 10 -9 22 -70 2 -10 -7 -24 -21
-33 -13 -9 -35 -40 -50 -70 -24 -48 -26 -62 -20 -122 7 -74 -16 -132 -52 -132
-62 0 -152 -140 -134 -210 11 -43 -15 -101 -67 -152 -36 -35 -66 -127 -56
-172 3 -17 10 -78 15 -136 14 -173 39 -256 107 -356 68 -99 166 -185 260 -226
53 -23 199 -49 246 -43 118 15 197 34 197 48 0 5 -8 6 -17 2 -46 -17 -135 -27
-201 -21 -330 30 -535 295 -500 646 15 140 70 266 201 458 173 253 207 329
207 461 0 190 -91 316 -270 377 -78 26 -208 32 -300 13z"/><path d="M9704 4543 c-9 -7 -214 -493 -214 -509 0 -2 -23 -59 -52 -127 -28
-67 -70 -171 -94 -232 -23 -60 -93 -234 -154 -385 -62 -151 -123 -304 -137
-340 -43 -115 -115 -253 -156 -297 -37 -40 -53 -50 -129 -81 -24 -10 -28 -17
-28 -52 l0 -40 289 0 c254 0 290 2 295 16 17 44 -7 84 -50 84 -88 0 -137 100
-103 209 17 53 88 239 110 288 11 24 19 47 19 53 0 7 128 9 388 8 l387 -3 47
-115 c77 -186 111 -298 105 -349 -6 -53 -20 -68 -88 -91 -53 -17 -54 -18 -54
-56 l0 -39 400 0 400 0 3 36 c3 41 -6 51 -65 67 -29 9 -54 27 -82 59 -60 67
-66 81 -342 743 -77 184 -169 403 -204 485 -93 220 -219 520 -252 600 l-29 70
-99 3 c-55 1 -105 -1 -111 -5z m24 -548 c34 -89 218 -542 251 -618 41 -94 64
-87 -294 -87 -173 0 -315 2 -315 5 0 3 11 33 25 67 14 34 25 65 25 70 0 4 9
27 19 51 39 87 92 217 130 318 72 193 114 290 121 282 4 -4 21 -44 38 -88z"/><path d="M11920 2713 c0 -280 -89 -506 -279 -706 -244 -256 -656 -381 -1101
-334 -296 32 -488 84 -1045 282 -488 173 -866 235 -1163 190 -268 -40 -513
-188 -601 -361 -63 -126 -75 -174 -75 -289 1 -121 26 -210 84 -294 54 -80 78
-96 35 -24 -148 250 -76 565 169 737 158 111 312 151 571 150 306 -1 600 -72
1056 -255 303 -121 586 -213 784 -253 167 -34 228 -40 415 -40 189 -1 252 6
397 40 461 109 794 492 819 944 9 157 -2 286 -27 311 -35 35 -39 23 -39 -98z"/><path d="M7690 2140 c-167 -35 -437 -130 -447 -157 -3 -8 1 -21 8 -29 13 -12
29 -8 119 32 150 65 271 108 380 134 161 37 163 38 90 38 -36 0 -103 -8 -150
-18z"/><path d="M3850 2043 c0 -38 194 -237 298 -307 355 -236 747 -258 1137 -65 132
66 170 100 70 63 -141 -52 -226 -76 -363 -103 -78 -16 -328 -14 -410 4 -241
50 -441 156 -649 343 -46 41 -83 70 -83 65z"/><path d="M6705 1717 c-523 -268 -859 -370 -1270 -383 -158 -5 -178 -8 -277
-40 -59 -19 -114 -34 -122 -34 -9 0 -16 -4 -16 -9 0 -19 150 -34 335 -33 459
1 829 111 1355 402 141 78 220 128 220 139 0 10 -45 41 -57 41 -4 0 -80 -38
-168 -83z"/><path d="M7998 1673 c-118 -124 -109 -340 17 -450 83 -74 179 -97 297 -72 82
18 130 42 282 144 258 172 379 210 566 181 44 -6 44 -6 15 7 -16 8 -64 17
-105 21 -164 14 -340 -34 -420 -115 -62 -63 -103 -89 -139 -89 -34 0 -159 -58
-180 -84 -24 -29 -135 -22 -190 12 -25 15 -60 34 -77 41 -63 25 -104 110 -104
217 0 78 8 105 53 172 32 48 24 56 -15 15z"/></g><g transform="translate(0,0) translate(1134.5,519) scale(0.9473684210526315,0.729064039408867) translate(-1134.5,-519) translate(0,768) scale(0.1,-0.1)"><path fill="#C5A059" d="M10964 4494 c-10 -39 6 -56 62 -71 58 -14 97 -53 116 -115 19 -64 19
-1543 0 -1608 -17 -54 -79 -120 -114 -120 -40 0 -60 -21 -56 -60 l3 -35 375 0
375 0 0 40 c0 38 -2 41 -40 53 -90 28 -114 58 -134 167 -15 80 -15 1394 0
1501 16 119 50 166 129 179 47 8 63 24 58 62 l-3 28 -382 3 -383 2 -6 -26z"/></g><circle cx="1134.5" cy="338" r="20" fill="#C5A059"/></svg>