<svg xmlns="http://www.w3.org/2000/svg" width="512" height="512" viewBox="0 0 1024 1024"><circle cx="512" cy="512" r="500" fill="#C5A059"/><g transform="translate(512,512) scale(1.12) translate(-512,-512) translate(0,1024) scale(0.1,-0.1)" fill="#16294D">
<path d="M4983 8530 c-637 -66 -1120 -478 -1259 -1075 -30 -126 -27 -452 4
-599 25 -117 72 -260 122 -370 31 -70 31 -70 54 -32 140 233 468 311 714 169
54 -32 53 -34 -5 -16 -27 8 -92 15 -148 16 -482 8 -736 -546 -413 -898 70 -76
88 -116 88 -192 -1 -239 -360 -416 -635 -313 -199 75 -305 227 -313 451 -5
153 10 227 109 509 105 303 122 374 123 530 1 202 -55 354 -178 486 -352 379
-987 182 -986 -305 1 -265 212 -457 423 -385 61 21 60 39 -3 54 -250 60 -246
413 5 486 134 38 280 -46 322 -186 43 -142 13 -275 -131 -578 -46 -98 -97
-215 -114 -262 -142 -405 -59 -811 221 -1077 330 -313 728 -346 1051 -85 38
31 66 49 61 41 -172 -291 -464 -422 -777 -350 -98 22 -289 108 -420 189 -354
218 -651 255 -937 120 -105 -50 -247 -185 -298 -283 -108 -207 -104 -491 8
-670 79 -127 217 -236 362 -286 80 -28 80 -28 78 -121 -10 -507 462 -870 878
-673 238 113 349 421 235 650 -24 47 -80 115 -95 115 -4 0 -4 -47 -1 -105 11
-218 -67 -347 -237 -391 -183 -46 -353 76 -390 281 -27 153 56 275 200 292 47
6 49 7 49 37 0 86 -92 196 -196 236 -51 20 -76 23 -183 22 -100 -2 -131 2
-165 17 -275 121 -188 511 114 511 96 0 168 -33 375 -171 289 -191 399 -244
591 -284 568 -117 1050 140 1234 658 25 69 27 25 4 -93 -56 -296 -212 -528
-597 -886 -397 -370 -551 -668 -550 -1064 1 -543 365 -943 858 -943 488 1 837
403 745 859 -50 246 -257 418 -484 401 -154 -11 -276 -110 -276 -223 0 -36 0
-36 35 -5 149 130 350 81 421 -104 28 -75 17 -225 -23 -306 -41 -82 -110 -151
-193 -192 -61 -30 -71 -32 -175 -32 -109 0 -113 1 -190 39 -264 131 -350 478
-195 786 71 140 160 238 428 467 381 327 550 519 677 771 43 86 105 257 105
291 0 46 16 24 31 -42 77 -325 309 -629 794 -1039 345 -291 464 -471 481 -727
22 -323 -196 -567 -489 -549 -267 17 -449 295 -356 543 65 175 279 222 417 92
32 -31 32 -31 32 6 0 118 -125 216 -285 225 -375 20 -610 -440 -426 -833 182
-386 652 -541 1056 -346 552 265 669 1046 241 1612 -66 89 -166 192 -411 429
-320 309 -464 558 -490 850 l-5 65 28 -70 c141 -346 349 -541 679 -633 148
-41 427 -40 587 1 191 50 322 115 538 268 161 114 277 170 366 177 257 18 403
-253 236 -438 -66 -73 -99 -84 -255 -87 -112 -2 -148 -7 -195 -24 -101 -38
-187 -138 -196 -229 -3 -34 -3 -34 50 -42 137 -20 205 -101 205 -243 -1 -348
-445 -474 -595 -168 -32 67 -33 70 -33 200 0 73 -3 133 -6 133 -16 0 -74 -79
-101 -137 -92 -196 -6 -471 185 -594 228 -147 545 -101 739 108 129 140 187
287 197 502 6 124 6 124 71 146 376 127 554 511 409 886 -148 384 -598 540
-1034 358 -38 -16 -122 -59 -185 -95 -217 -124 -342 -183 -446 -210 -298 -77
-584 32 -763 290 -51 74 -52 88 -3 40 294 -288 755 -261 1085 63 193 190 280
402 281 688 1 225 -32 341 -197 690 -102 217 -119 269 -124 390 -10 206 94
338 267 339 291 2 359 -413 80 -491 -69 -19 -73 -26 -27 -50 51 -28 159 -24
227 8 208 98 275 366 151 604 -139 268 -502 353 -789 183 -84 -49 -191 -160
-234 -243 -121 -233 -112 -451 37 -864 78 -216 100 -296 115 -411 45 -337
-167 -600 -483 -600 -257 0 -481 173 -464 360 6 70 23 103 90 178 220 247 175
618 -97 800 -139 93 -317 124 -461 79 -65 -21 -41 1 50 44 207 99 486 28 624
-158 25 -34 49 -62 52 -62 9 -1 63 123 97 224 184 550 71 1086 -308 1465 -294
295 -747 453 -1167 410z m-259 -2404 c51 -38 86 -117 86 -190 0 -61 0 -61 -30
-10 -56 98 -117 118 -215 69 -57 -28 -131 -33 -173 -11 -52 27 -102 101 -102
151 0 25 0 25 43 4 52 -27 136 -29 192 -4 88 38 140 36 199 -9z m990 12 c53
-27 139 -26 194 0 42 20 42 20 42 -9 0 -122 -149 -196 -270 -134 -99 50 -173
25 -225 -77 -27 -53 -27 -53 -23 17 9 184 137 275 282 203z"/>
<path d="M2070 6150 c-167 -29 -311 -142 -390 -305 -117 -245 -73 -596 107
-841 52 -72 53 -72 98 -44 96 59 223 91 395 99 135 6 135 6 78 35 -301 153
-447 429 -356 675 91 246 407 230 451 -23 13 -79 19 -81 44 -18 70 183 -68
386 -288 421 -71 12 -75 12 -139 1z"/>
<path d="M8028 6150 c-221 -37 -351 -234 -282 -427 19 -53 31 -55 39 -5 24
154 91 224 214 223 140 0 234 -94 263 -259 37 -218 -101 -437 -367 -583 -67
-36 -67 -36 77 -41 161 -6 228 -22 360 -88 76 -38 76 -38 135 48 218 325 213
740 -11 979 -71 76 -185 137 -286 153 -72 11 -75 11 -142 0z"/>
</g><circle cx="512" cy="512" r="492" fill="none" stroke="#16294D" stroke-width="14"/></svg>